<mxfile host="app.diagrams.net" agent="Mozilla/5.0 (Windows NT 10.0; Win64; x64) AppleWebKit/537.36 (KHTML, like Gecko) Chrome/135.0.0.0 Safari/537.36" version="26.2.13">
  <diagram name="Page-1" id="dQ17SKhB1YvltvPenFDq">
    <mxGraphModel dx="1428" dy="789" grid="1" gridSize="10" guides="1" tooltips="1" connect="1" arrows="1" fold="1" page="1" pageScale="1" pageWidth="827" pageHeight="1169" math="0" shadow="0">
      <root>
        <mxCell id="0" />
        <mxCell id="1" parent="0" />
        <mxCell id="i_tGpAb6qwOImgrQcqED-23" style="edgeStyle=orthogonalEdgeStyle;rounded=0;orthogonalLoop=1;jettySize=auto;html=1;exitX=0.5;exitY=1;exitDx=0;exitDy=0;entryX=0.5;entryY=0;entryDx=0;entryDy=0;" edge="1" parent="1" source="i_tGpAb6qwOImgrQcqED-12" target="i_tGpAb6qwOImgrQcqED-13">
          <mxGeometry relative="1" as="geometry" />
        </mxCell>
        <mxCell id="i_tGpAb6qwOImgrQcqED-12" value="CEO" style="rounded=1;whiteSpace=wrap;html=1;" vertex="1" parent="1">
          <mxGeometry x="40" y="80" width="120" height="40" as="geometry" />
        </mxCell>
        <mxCell id="i_tGpAb6qwOImgrQcqED-24" style="edgeStyle=orthogonalEdgeStyle;rounded=0;orthogonalLoop=1;jettySize=auto;html=1;exitX=1;exitY=0.5;exitDx=0;exitDy=0;" edge="1" parent="1" source="i_tGpAb6qwOImgrQcqED-13" target="i_tGpAb6qwOImgrQcqED-14">
          <mxGeometry relative="1" as="geometry" />
        </mxCell>
        <mxCell id="i_tGpAb6qwOImgrQcqED-25" style="edgeStyle=orthogonalEdgeStyle;rounded=0;orthogonalLoop=1;jettySize=auto;html=1;exitX=1;exitY=0.5;exitDx=0;exitDy=0;entryX=0;entryY=0.5;entryDx=0;entryDy=0;" edge="1" parent="1" source="i_tGpAb6qwOImgrQcqED-13" target="i_tGpAb6qwOImgrQcqED-15">
          <mxGeometry relative="1" as="geometry" />
        </mxCell>
        <mxCell id="i_tGpAb6qwOImgrQcqED-26" style="edgeStyle=orthogonalEdgeStyle;rounded=0;orthogonalLoop=1;jettySize=auto;html=1;exitX=1;exitY=0.5;exitDx=0;exitDy=0;entryX=0;entryY=0.5;entryDx=0;entryDy=0;" edge="1" parent="1" source="i_tGpAb6qwOImgrQcqED-13" target="i_tGpAb6qwOImgrQcqED-19">
          <mxGeometry relative="1" as="geometry" />
        </mxCell>
        <mxCell id="i_tGpAb6qwOImgrQcqED-27" style="edgeStyle=orthogonalEdgeStyle;rounded=0;orthogonalLoop=1;jettySize=auto;html=1;exitX=1;exitY=0.5;exitDx=0;exitDy=0;entryX=0;entryY=0.5;entryDx=0;entryDy=0;" edge="1" parent="1" source="i_tGpAb6qwOImgrQcqED-13" target="i_tGpAb6qwOImgrQcqED-18">
          <mxGeometry relative="1" as="geometry" />
        </mxCell>
        <mxCell id="i_tGpAb6qwOImgrQcqED-28" style="edgeStyle=orthogonalEdgeStyle;rounded=0;orthogonalLoop=1;jettySize=auto;html=1;exitX=1;exitY=0.5;exitDx=0;exitDy=0;entryX=0;entryY=0.5;entryDx=0;entryDy=0;" edge="1" parent="1" source="i_tGpAb6qwOImgrQcqED-13" target="i_tGpAb6qwOImgrQcqED-17">
          <mxGeometry relative="1" as="geometry" />
        </mxCell>
        <mxCell id="i_tGpAb6qwOImgrQcqED-13" value="Project Manager" style="rounded=1;whiteSpace=wrap;html=1;" vertex="1" parent="1">
          <mxGeometry x="40" y="160" width="120" height="40" as="geometry" />
        </mxCell>
        <mxCell id="i_tGpAb6qwOImgrQcqED-14" value="Content Writer" style="rounded=1;whiteSpace=wrap;html=1;" vertex="1" parent="1">
          <mxGeometry x="240" y="160" width="120" height="40" as="geometry" />
        </mxCell>
        <mxCell id="i_tGpAb6qwOImgrQcqED-29" style="edgeStyle=orthogonalEdgeStyle;rounded=0;orthogonalLoop=1;jettySize=auto;html=1;exitX=1;exitY=0.5;exitDx=0;exitDy=0;" edge="1" parent="1" source="i_tGpAb6qwOImgrQcqED-15" target="i_tGpAb6qwOImgrQcqED-16">
          <mxGeometry relative="1" as="geometry" />
        </mxCell>
        <mxCell id="i_tGpAb6qwOImgrQcqED-30" style="edgeStyle=orthogonalEdgeStyle;rounded=0;orthogonalLoop=1;jettySize=auto;html=1;exitX=1;exitY=0.5;exitDx=0;exitDy=0;entryX=0;entryY=0.5;entryDx=0;entryDy=0;" edge="1" parent="1" source="i_tGpAb6qwOImgrQcqED-15" target="i_tGpAb6qwOImgrQcqED-20">
          <mxGeometry relative="1" as="geometry" />
        </mxCell>
        <mxCell id="i_tGpAb6qwOImgrQcqED-15" value="Backend Team" style="rounded=1;whiteSpace=wrap;html=1;" vertex="1" parent="1">
          <mxGeometry x="240" y="240" width="120" height="40" as="geometry" />
        </mxCell>
        <mxCell id="i_tGpAb6qwOImgrQcqED-16" value="Junior Developer&lt;div&gt;(ME)&lt;/div&gt;" style="rounded=1;whiteSpace=wrap;html=1;" vertex="1" parent="1">
          <mxGeometry x="440" y="200" width="120" height="40" as="geometry" />
        </mxCell>
        <mxCell id="i_tGpAb6qwOImgrQcqED-17" value="Support &amp;amp; Maintenance" style="rounded=1;whiteSpace=wrap;html=1;" vertex="1" parent="1">
          <mxGeometry x="240" y="480" width="120" height="40" as="geometry" />
        </mxCell>
        <mxCell id="i_tGpAb6qwOImgrQcqED-18" value="Quality Assurance" style="rounded=1;whiteSpace=wrap;html=1;" vertex="1" parent="1">
          <mxGeometry x="240" y="400" width="120" height="40" as="geometry" />
        </mxCell>
        <mxCell id="i_tGpAb6qwOImgrQcqED-31" style="edgeStyle=orthogonalEdgeStyle;rounded=0;orthogonalLoop=1;jettySize=auto;html=1;exitX=1;exitY=0.5;exitDx=0;exitDy=0;" edge="1" parent="1" source="i_tGpAb6qwOImgrQcqED-19" target="i_tGpAb6qwOImgrQcqED-21">
          <mxGeometry relative="1" as="geometry" />
        </mxCell>
        <mxCell id="i_tGpAb6qwOImgrQcqED-32" style="edgeStyle=orthogonalEdgeStyle;rounded=0;orthogonalLoop=1;jettySize=auto;html=1;exitX=1;exitY=0.5;exitDx=0;exitDy=0;entryX=0;entryY=0.5;entryDx=0;entryDy=0;" edge="1" parent="1" source="i_tGpAb6qwOImgrQcqED-19" target="i_tGpAb6qwOImgrQcqED-22">
          <mxGeometry relative="1" as="geometry" />
        </mxCell>
        <mxCell id="i_tGpAb6qwOImgrQcqED-19" value="Frontend Team" style="rounded=1;whiteSpace=wrap;html=1;" vertex="1" parent="1">
          <mxGeometry x="240" y="320" width="120" height="40" as="geometry" />
        </mxCell>
        <mxCell id="i_tGpAb6qwOImgrQcqED-20" value="Senior Developer" style="rounded=1;whiteSpace=wrap;html=1;" vertex="1" parent="1">
          <mxGeometry x="440" y="280" width="120" height="40" as="geometry" />
        </mxCell>
        <mxCell id="i_tGpAb6qwOImgrQcqED-21" value="Junior Designer" style="rounded=1;whiteSpace=wrap;html=1;" vertex="1" parent="1">
          <mxGeometry x="440" y="360" width="120" height="40" as="geometry" />
        </mxCell>
        <mxCell id="i_tGpAb6qwOImgrQcqED-22" value="Senior Designer" style="rounded=1;whiteSpace=wrap;html=1;" vertex="1" parent="1">
          <mxGeometry x="440" y="440" width="120" height="40" as="geometry" />
        </mxCell>
      </root>
    </mxGraphModel>
  </diagram>
</mxfile>
